<svg width="2260" height="1397" viewBox="0 0 2260 1397" fill="none" xmlns="http://www.w3.org/2000/svg">
<path opacity="0.0144928" d="M367.602 1181.44L209.568 896.752C206.626 891.452 205.895 885.205 207.534 879.369L333.587 430.638C334.877 426.049 337.56 421.973 341.267 418.975L658.668 162.271C665.389 156.835 674.59 155.627 682.486 159.143L941.885 274.634C949.781 278.15 955.04 285.796 955.497 294.428L977.112 702.071C977.364 706.832 976.131 711.553 973.583 715.583L724.457 1109.52C721.217 1114.64 716.086 1118.28 710.178 1119.64L392.871 1192.69C382.882 1194.99 372.577 1190.4 367.602 1181.44Z" stroke="url(#paint0_linear_270_19)" stroke-width="4"/>
<path opacity="0.0289855" d="M416.899 1194.6L244.983 920.825C241.754 915.684 240.689 909.475 242.02 903.552L343.26 452.969C344.308 448.304 346.784 444.081 350.344 440.889L651.627 170.682C658.053 164.918 667.166 163.239 675.225 166.332L938.736 267.484C946.795 270.578 952.443 277.924 953.362 286.508L996.456 688.908C996.965 693.662 995.979 698.457 993.637 702.626L767.374 1105.22C764.399 1110.51 759.453 1114.41 753.614 1116.07L442.667 1204.49C432.834 1207.28 422.335 1203.25 416.899 1194.6Z" stroke="url(#paint1_linear_270_19)" stroke-width="4"/>
<path opacity="0.0434783" d="M466.289 1206.18L281.197 943.987C277.691 939.02 276.294 932.867 277.311 926.872L353.892 475.794C354.695 471.066 356.956 466.707 360.359 463.326L644.986 180.593C651.102 174.517 660.103 172.372 668.302 175.036L935.139 261.737C943.339 264.401 949.36 271.427 950.737 279.937L1014.82 675.973C1015.58 680.708 1014.85 685.564 1012.72 689.861L809.539 1099.8C806.839 1105.25 802.092 1109.41 796.336 1111.37L492.483 1214.69C482.83 1217.97 472.169 1214.5 466.289 1206.18Z" stroke="url(#paint2_linear_270_19)" stroke-width="4"/>
<path opacity="0.057971" d="M515.685 1216.19L318.156 966.203C314.381 961.425 312.655 955.345 313.355 949.297L365.506 499.058C366.059 494.279 368.098 489.794 371.334 486.234L638.825 191.968C644.616 185.597 653.481 182.994 661.797 185.222L931.176 257.402C939.492 259.631 945.868 266.317 947.698 274.73L1032.22 663.318C1033.24 668.019 1032.76 672.922 1030.85 677.338L850.898 1093.33C848.481 1098.92 843.946 1103.32 838.288 1105.57L542.23 1223.3C532.782 1227.06 521.988 1224.17 515.685 1216.19Z" stroke="url(#paint3_linear_270_19)" stroke-width="4"/>
<path opacity="0.0724638" d="M565.001 1224.65L355.802 987.442C351.769 982.868 349.717 976.88 350.097 970.793L378.118 522.705C378.419 517.888 380.228 513.288 383.288 509.556L633.221 204.768C638.673 198.119 647.378 195.067 655.788 196.855L926.925 254.487C935.335 256.274 942.046 262.603 944.323 270.895L1048.68 650.989C1049.96 655.643 1049.74 660.581 1048.05 665.104L891.398 1085.85C889.271 1091.57 884.96 1096.2 879.415 1098.74L591.822 1230.35C582.602 1234.57 571.707 1232.25 565.001 1224.65Z" stroke="url(#paint4_linear_270_19)" stroke-width="4"/>
<path opacity="0.0869565" d="M614.153 1231.58L394.078 1007.68C389.797 1003.32 387.424 997.442 387.482 991.335L391.742 546.676C391.788 541.835 393.361 537.132 396.237 533.237L628.248 218.949C633.347 212.041 641.87 208.549 650.35 209.892L922.467 252.991C930.947 254.334 937.973 260.289 940.688 268.434L1064.22 639.035C1065.76 643.629 1065.8 648.588 1064.35 653.206L930.99 1077.42C929.158 1083.24 925.084 1088.1 919.666 1090.92L641.174 1235.86C632.206 1240.52 621.241 1238.79 614.153 1231.58Z" stroke="url(#paint5_linear_270_19)" stroke-width="4"/>
<path opacity="0.101449" d="M663.06 1236.99L432.925 1026.89C428.407 1022.76 425.718 1017.01 425.454 1010.9L406.389 570.916C406.179 566.063 407.51 561.268 410.193 557.219L623.977 234.463C628.712 227.315 637.029 223.394 645.556 224.29L917.879 252.912C926.406 253.809 933.727 259.373 936.872 267.35L1078.88 627.501C1080.66 632.02 1080.97 636.986 1079.75 641.689L969.628 1068.09C968.098 1074.01 964.272 1079.08 958.995 1082.18L690.205 1239.85C681.509 1244.95 670.505 1243.79 663.06 1236.99Z" stroke="url(#paint6_linear_270_19)" stroke-width="4"/>
<path opacity="0.115942" d="M711.641 1240.93L472.282 1045.05C467.54 1041.17 464.543 1035.55 463.954 1029.46L422.068 595.366C421.6 590.515 422.684 585.641 425.165 581.447L620.475 251.26C624.834 243.891 632.925 239.553 641.475 240.001L913.241 254.244C921.791 254.692 929.384 259.852 932.949 267.636L1092.68 616.43C1094.7 620.86 1095.27 625.821 1094.3 630.596L1007.27 1057.93C1006.05 1063.93 1002.48 1069.2 997.358 1072.56L738.834 1242.35C730.432 1247.87 719.42 1247.3 711.641 1240.93Z" stroke="url(#paint7_linear_270_19)" stroke-width="4"/>
<path opacity="0.130435" d="M759.819 1243.42L512.089 1062.14C507.136 1058.52 503.838 1053.07 502.926 1047L438.781 619.968C438.055 615.133 438.888 610.193 441.161 605.863L617.808 269.285C621.781 261.716 629.624 256.974 638.173 256.974H908.629C917.178 256.974 925.021 261.716 928.994 269.285L1105.64 605.863C1107.91 610.193 1108.75 615.133 1108.02 619.968L1043.88 1047C1042.96 1053.07 1039.67 1058.52 1034.71 1062.14L786.983 1243.42C778.895 1249.34 767.907 1249.34 759.819 1243.42Z" stroke="url(#paint8_linear_270_19)" stroke-width="4"/>
<path opacity="0.144928" d="M807.517 1244.49L552.285 1078.16C547.136 1074.8 543.544 1069.53 542.311 1063.5L456.532 644.667C455.547 639.861 456.126 634.866 458.182 630.412L616.035 288.481C619.613 280.731 627.189 275.6 635.713 275.153L904.117 261.087C912.642 260.64 920.713 264.951 925.081 272.285L1117.81 595.842C1120.32 600.057 1121.42 604.964 1120.94 609.846L1079.41 1035.36C1078.82 1041.47 1075.8 1047.1 1071.03 1050.97L834.578 1243.07C826.823 1249.38 815.888 1249.95 807.517 1244.49Z" stroke="url(#paint9_linear_270_19)" stroke-width="4"/>
<path opacity="0.15942" d="M854.664 1244.2L592.811 1093.09C587.478 1090.01 583.602 1084.92 582.05 1078.97L475.316 669.403C474.075 664.639 474.395 659.603 476.228 655.035L615.213 308.787C618.388 300.878 625.677 295.372 634.154 294.481L899.781 266.563C908.258 265.672 916.532 269.541 921.282 276.618L1129.22 586.403C1131.96 590.49 1133.32 595.349 1133.1 600.267L1113.85 1023.07C1113.57 1029.22 1110.84 1035 1106.26 1039.12L881.547 1241.37C874.143 1248.04 863.292 1249.18 854.664 1244.2Z" stroke="url(#paint10_linear_270_19)" stroke-width="4"/>
<path opacity="0.173913" d="M901.19 1242.57L633.604 1106.92C628.104 1104.13 623.954 1099.25 622.085 1093.38L495.131 694.12C493.634 689.412 493.693 684.348 495.298 679.676L615.397 330.14C618.162 322.092 625.145 316.228 633.551 314.897L895.693 273.378C904.098 272.047 912.551 275.465 917.668 282.265L1139.9 577.581C1142.87 581.528 1144.49 586.326 1144.52 591.266L1147.16 1010.21C1147.2 1016.38 1144.76 1022.3 1140.39 1026.65L927.82 1238.36C920.785 1245.36 910.047 1247.06 901.19 1242.57Z" stroke="url(#paint11_linear_270_19)" stroke-width="4"/>
<path opacity="0.188406" d="M947.029 1239.67L674.604 1119.66C668.952 1117.17 664.539 1112.51 662.358 1106.73L515.968 718.762C514.218 714.124 514.013 709.045 515.384 704.281L616.634 352.474C618.984 344.309 625.644 338.105 633.955 336.338L891.922 281.506C900.232 279.739 908.84 282.698 914.308 289.202L1149.9 569.411C1153.09 573.206 1154.97 577.929 1155.25 582.878L1179.32 996.844C1179.68 1003.01 1177.54 1009.06 1173.39 1013.64L973.334 1234.08C966.682 1241.41 956.087 1243.66 947.029 1239.67Z" stroke="url(#paint12_linear_270_19)" stroke-width="4"/>
<path opacity="0.202899" d="M992.117 1235.54L715.751 1131.29C709.963 1129.11 705.298 1124.68 702.81 1119.02L537.814 743.275C535.814 738.72 535.344 733.639 536.476 728.794L618.97 375.721C620.9 367.461 627.22 360.933 635.414 358.738L888.535 290.914C896.729 288.719 905.466 291.212 911.268 297.4L1159.25 561.924C1162.65 565.553 1164.78 570.188 1165.33 575.133L1210.31 983.035C1210.99 989.185 1209.16 995.349 1205.24 1000.13L1018.02 1228.6C1011.77 1236.23 1001.35 1239.02 992.117 1235.54Z" stroke="url(#paint13_linear_270_19)" stroke-width="4"/>
<path opacity="0.217391" d="M1036.39 1230.24L756.986 1141.83C751.077 1139.96 746.173 1135.79 743.384 1130.25L560.657 767.602C558.41 763.143 557.676 758.075 558.564 753.161L622.446 399.811C623.953 391.477 629.917 384.646 637.972 382.029L885.601 301.569C893.655 298.952 902.496 300.973 908.613 306.83L1167.99 555.147C1171.6 558.6 1173.98 563.133 1174.78 568.06L1240.12 968.855C1241.11 974.972 1239.6 981.232 1235.92 986.218L1061.83 1221.97C1055.99 1229.88 1045.77 1233.2 1036.39 1230.24Z" stroke="url(#paint14_linear_270_19)" stroke-width="4"/>
<path opacity="0.231884" d="M1079.8 1223.81L798.248 1151.28C792.237 1149.73 787.106 1145.82 784.023 1140.43L584.479 791.692C581.99 787.343 580.99 782.299 581.631 777.329L627.098 424.673C628.179 416.287 633.774 409.171 641.667 406.141L883.179 313.433C891.073 310.403 899.992 311.948 906.406 317.456L1176.17 549.108C1179.97 552.372 1182.6 556.79 1183.66 561.688L1268.72 954.373C1270.04 960.44 1268.84 966.781 1265.41 971.955L1104.71 1214.25C1099.29 1222.42 1089.29 1226.26 1079.8 1223.81Z" stroke="url(#paint15_linear_270_19)" stroke-width="4"/>
<path opacity="0.246377" d="M1122.29 1216.33L839.481 1159.65C833.383 1158.43 828.04 1154.79 824.67 1149.57L609.261 815.493C606.535 811.265 605.27 806.26 605.66 801.245L632.958 450.232C633.613 441.818 638.823 434.437 646.534 431.004L881.332 326.465C889.043 323.032 898.014 324.098 904.706 329.243L1183.83 543.829C1187.81 546.895 1190.69 551.184 1192 556.039L1296.13 939.658C1297.76 945.659 1296.89 952.065 1293.72 957.414L1146.6 1205.51C1141.62 1213.91 1131.87 1218.25 1122.29 1216.33Z" stroke="url(#paint16_linear_270_19)" stroke-width="4"/>
<path opacity="0.26087" d="M1163.82 1207.85L880.626 1166.96C874.461 1166.07 868.92 1162.71 865.271 1157.66L634.979 838.952C632.021 834.86 630.493 829.907 630.63 824.86L640.054 476.416C640.282 467.993 645.097 460.37 652.604 456.545L880.117 340.621C887.624 336.796 896.622 337.382 903.57 342.148L1191.01 539.334C1195.17 542.19 1198.28 546.337 1199.85 551.136L1322.33 924.78C1324.27 930.7 1323.73 937.153 1320.82 942.665L1187.45 1195.81C1182.92 1204.42 1173.45 1209.24 1163.82 1207.85Z" stroke="url(#paint17_linear_270_19)" stroke-width="4"/>
<path opacity="0.275362" d="M1204.33 1198.44L921.629 1173.21C915.413 1172.65 909.69 1169.6 905.772 1164.74L661.608 862.023C658.426 858.078 656.636 853.191 656.517 848.124L648.409 503.148C648.212 494.74 652.619 486.894 659.903 482.689L879.587 355.854C886.871 351.649 895.869 351.754 903.052 356.13L1197.76 535.639C1202.09 538.276 1205.42 542.269 1207.25 546.998L1347.33 909.808C1349.57 915.63 1349.36 922.115 1346.73 927.776L1227.23 1185.22C1223.15 1194.01 1213.99 1199.3 1204.33 1198.44Z" stroke="url(#paint18_linear_270_19)" stroke-width="4"/>
<path opacity="0.289855" d="M1243.78 1188.16L962.435 1178.43C956.187 1178.21 950.296 1175.46 946.119 1170.81L689.122 884.657C685.722 880.871 683.673 876.064 683.297 870.99L658.042 530.352C657.422 521.98 661.412 513.934 668.453 509.362L879.795 372.115C886.836 367.542 895.809 367.169 903.205 371.142L1204.12 532.762C1208.6 535.17 1212.16 538.997 1214.24 543.643L1371.12 894.811C1373.67 900.519 1373.79 907.019 1371.44 912.815L1265.9 1173.8C1262.28 1182.76 1253.44 1188.5 1243.78 1188.16Z" stroke="url(#paint19_linear_270_19)" stroke-width="4"/>
<path opacity="0.304348" d="M1282.15 1177.09L1002.99 1182.64C996.729 1182.76 990.687 1180.33 986.261 1175.89L717.489 906.81C713.878 903.195 711.574 898.481 710.939 893.411L668.967 557.952C667.927 549.637 671.491 541.415 678.27 536.489L880.788 389.352C887.567 384.426 896.489 383.578 904.075 387.136L1210.15 530.717C1214.77 532.887 1218.54 536.535 1220.86 541.086L1393.72 879.856C1396.57 885.434 1397.02 891.933 1394.97 897.85L1303.42 1161.63C1300.27 1170.73 1291.78 1176.9 1282.15 1177.09Z" stroke="url(#paint20_linear_270_19)" stroke-width="4"/>
<path opacity="0.318841" d="M1319.4 1165.28L1043.25 1185.86C1036.99 1186.32 1030.81 1184.21 1026.15 1180.01L746.677 928.437C742.864 925.005 740.308 920.397 739.416 915.345L681.195 585.872C679.739 577.636 682.87 569.259 689.369 563.995L882.61 407.512C889.11 402.248 897.955 400.928 905.709 404.064L1215.88 529.514C1220.63 531.437 1224.61 534.895 1227.17 539.338L1415.15 865.01C1418.28 870.444 1419.06 876.924 1417.31 882.947L1339.77 1148.78C1337.08 1157.99 1328.96 1164.57 1319.4 1165.28Z" stroke="url(#paint21_linear_270_19)" stroke-width="4"/>
<path opacity="0.333333" d="M1355.49 1152.81L1083.15 1188.11C1076.92 1188.92 1070.62 1187.14 1065.74 1183.19L776.651 949.497C772.645 946.259 769.842 941.77 768.692 936.749L694.729 614.034C692.864 605.897 695.555 597.389 701.758 591.803L885.304 426.538C891.507 420.952 900.25 419.166 908.147 421.871L1221.36 529.161C1226.24 530.831 1230.41 534.087 1233.21 538.41L1435.41 850.338C1438.83 855.613 1439.94 862.057 1438.48 868.173L1374.91 1135.33C1372.7 1144.63 1364.97 1151.59 1355.49 1152.81Z" stroke="url(#paint22_linear_270_19)" stroke-width="4"/>
<path opacity="0.347826" d="M1390.41 1139.76L1122.66 1189.44C1116.47 1190.59 1110.07 1189.15 1104.97 1185.45L807.375 969.952C803.185 966.918 800.141 962.561 798.733 957.583L709.572 642.362C707.304 634.346 709.549 625.73 715.44 619.839L888.906 446.373C894.797 440.482 903.413 438.238 911.429 440.505L1226.65 529.666C1231.63 531.074 1235.98 534.118 1239.02 538.308L1454.52 835.905C1458.21 841.006 1459.66 847.399 1458.51 853.591L1408.83 1121.34C1407.09 1130.7 1399.77 1138.02 1390.41 1139.76Z" stroke="url(#paint23_linear_270_19)" stroke-width="4"/>
<path opacity="0.362319" d="M1424.13 1126.19L1161.72 1189.86C1155.59 1191.35 1149.12 1190.26 1143.82 1186.83L838.809 989.764C834.446 986.945 831.166 982.731 829.502 977.81L725.719 670.782C723.057 662.905 724.853 654.205 730.416 648.026L893.45 466.959C899.013 460.78 907.478 458.085 915.59 459.91L1231.78 531.031C1236.85 532.171 1241.39 534.993 1244.65 539.037L1472.52 821.774C1476.47 826.687 1478.24 833.011 1477.4 839.265L1441.51 1106.89C1440.24 1116.29 1433.35 1123.95 1424.13 1126.19Z" stroke="url(#paint24_linear_270_19)" stroke-width="4"/>
<path opacity="0.376812" d="M1456.65 1112.17L1200.3 1189.42C1194.25 1191.24 1187.71 1190.5 1182.23 1187.35L870.914 1008.9C866.388 1006.3 862.879 1002.25 860.962 997.395L743.164 699.217C740.116 691.5 741.46 682.74 746.681 676.292L898.967 488.234C904.189 481.786 912.478 478.65 920.66 480.028L1236.81 533.256C1241.96 534.123 1246.66 536.712 1250.13 540.6L1489.41 808.005C1493.63 812.716 1495.72 818.955 1495.2 825.255L1472.93 1092.06C1472.15 1101.47 1465.69 1109.45 1456.65 1112.17Z" stroke="url(#paint25_linear_270_19)" stroke-width="4"/>
<path opacity="0.391304" d="M1487.94 1097.78L1238.35 1188.14C1232.39 1190.3 1225.81 1189.91 1220.16 1187.05L903.648 1027.32C898.969 1024.96 895.238 1021.08 893.07 1016.3L761.894 727.595C758.469 720.057 759.36 711.26 764.226 704.561L905.483 510.138C910.35 503.44 918.441 499.874 926.668 500.802L1241.78 536.342C1246.99 536.929 1251.84 539.277 1255.53 542.997L1505.25 794.657C1509.71 799.153 1512.12 805.291 1511.91 811.621L1503.1 1076.92C1502.79 1086.32 1496.78 1094.58 1487.94 1097.78Z" stroke="url(#paint26_linear_270_19)" stroke-width="4"/>
<path opacity="0.405797" d="M1518.01 1083.09L1275.83 1186.07C1269.99 1188.56 1263.39 1188.52 1257.58 1185.96L936.965 1045.01C932.146 1042.89 928.2 1039.18 925.785 1034.51L781.892 755.842C778.101 748.501 778.539 739.692 783.039 732.763L913.021 532.607C917.521 525.679 925.391 521.695 933.639 522.172L1246.74 540.282C1251.99 540.586 1256.99 542.683 1260.88 546.224L1520.05 781.787C1524.75 786.056 1527.47 792.075 1527.58 798.421L1532 1061.54C1532.16 1070.91 1526.63 1079.43 1518.01 1083.09Z" stroke="url(#paint27_linear_270_19)" stroke-width="4"/>
<path opacity="0.42029" d="M1546.84 1068.18L1312.72 1183.25C1307.01 1186.05 1300.4 1186.37 1294.45 1184.12L970.822 1061.93C965.875 1060.06 961.723 1056.55 959.065 1051.98L803.139 783.889C798.995 776.763 798.981 767.964 803.102 760.825L921.601 555.58C925.722 548.441 933.349 544.054 941.593 544.08L1251.73 545.071C1257.01 545.088 1262.13 546.926 1266.23 550.277L1533.86 769.45C1538.78 773.479 1541.81 779.365 1542.24 785.709L1559.65 1046C1560.27 1055.31 1555.21 1064.07 1546.84 1068.18Z" stroke="url(#paint28_linear_270_19)" stroke-width="4"/>
<path opacity="0.434783" d="M1574.45 1053.11L1348.97 1179.7C1343.41 1182.82 1336.81 1183.5 1330.74 1181.57L1005.17 1078.06C1000.11 1076.45 995.761 1073.14 992.863 1068.69L825.611 811.665C821.125 804.771 820.661 796.007 824.395 788.678L931.236 578.992C934.97 571.664 942.333 566.887 950.547 566.464L1256.79 550.7C1262.1 550.427 1267.33 551.999 1271.61 555.148L1546.71 757.697C1551.84 761.474 1555.17 767.211 1555.92 773.539L1586.03 1030.37C1587.11 1039.59 1582.55 1048.56 1574.45 1053.11Z" stroke="url(#paint29_linear_270_19)" stroke-width="4"/>
<path opacity="0.449275" d="M1600.83 1037.95L1384.55 1175.49C1379.16 1178.91 1372.59 1179.95 1366.41 1178.34L1039.97 1093.38C1034.8 1092.04 1030.27 1088.94 1027.14 1084.62L849.28 839.104C844.466 832.459 843.557 823.752 846.894 816.256L941.94 602.78C945.277 595.284 952.356 590.134 960.515 589.265L1261.98 557.158C1267.28 556.593 1272.62 557.891 1277.08 560.83L1558.64 746.577C1563.97 750.093 1567.6 755.666 1568.66 761.962L1611.17 1014.72C1612.7 1023.84 1608.63 1032.99 1600.83 1037.95Z" stroke="url(#paint30_linear_270_19)" stroke-width="4"/>
<path opacity="0.463768" d="M1626 1022.77L1419.43 1170.64C1414.23 1174.36 1407.71 1175.75 1401.45 1174.47L1075.16 1107.87C1069.91 1106.8 1065.19 1103.92 1061.83 1099.74L874.114 866.141C868.986 859.76 867.636 851.134 870.57 843.492L953.719 626.881C956.653 619.238 963.428 613.731 971.508 612.42L1267.32 564.431C1272.62 563.572 1278.04 564.59 1282.67 567.309L1569.71 736.139C1575.22 739.382 1579.14 744.775 1580.51 751.023L1635.07 999.13C1637.05 1008.12 1633.48 1017.42 1626 1022.77Z" stroke="url(#paint31_linear_270_19)" stroke-width="4"/>
<path opacity="0.478261" d="M1649.97 1007.65L1453.6 1165.21C1448.6 1169.22 1442.15 1170.96 1435.81 1170.02L1110.71 1121.51C1105.38 1120.72 1100.5 1118.08 1096.91 1114.05L900.078 892.714C894.652 886.611 892.867 878.089 895.391 870.322L966.578 651.231C969.102 643.464 975.554 637.618 983.532 635.871L1272.87 572.503C1278.14 571.35 1283.64 572.082 1288.42 574.572L1579.95 726.424C1585.63 729.386 1589.82 734.586 1591.51 740.77L1657.76 983.658C1660.17 992.494 1657.11 1001.92 1649.97 1007.65Z" stroke="url(#paint32_linear_270_19)" stroke-width="4"/>
<path opacity="0.492754" d="M1672.75 992.647L1487.02 1159.24C1482.24 1163.53 1475.88 1165.62 1469.49 1165.01L1146.55 1134.3C1141.16 1133.79 1136.12 1131.39 1132.32 1127.52L927.135 918.762C921.425 912.952 919.214 904.555 921.322 896.687L980.517 675.767C982.626 667.899 988.739 661.732 996.589 659.556L1278.67 581.357C1283.89 579.91 1289.45 580.351 1294.38 582.603L1589.41 717.475C1595.25 720.146 1599.71 725.138 1601.7 731.244L1679.25 968.376C1682.09 977.04 1679.53 986.56 1672.75 992.647Z" stroke="url(#paint33_linear_270_19)" stroke-width="4"/>
<path opacity="0.507246" d="M1694.37 977.828L1519.68 1152.77C1515.14 1157.32 1508.89 1159.76 1502.45 1159.5L1182.64 1146.21C1177.2 1145.99 1172.02 1143.84 1168.02 1140.15L955.243 944.228C949.266 938.724 946.636 930.474 948.325 922.526L995.534 700.427C997.223 692.479 1002.98 686.013 1010.68 683.416L1284.75 590.972C1289.91 589.232 1295.52 589.378 1300.58 591.384L1598.14 709.328C1604.12 711.7 1608.84 716.472 1611.14 722.483L1699.57 953.35C1702.82 961.821 1700.78 971.409 1694.37 977.828Z" stroke="url(#paint34_linear_270_19)" stroke-width="4"/>
<path opacity="0.521739" d="M1714.85 963.257L1551.56 1145.85C1547.26 1150.66 1541.14 1153.44 1534.69 1153.52L1218.94 1157.25C1213.47 1157.32 1208.15 1155.43 1203.95 1151.93L984.357 969.057C978.129 963.871 975.091 955.79 976.359 947.786L1011.62 725.15C1012.89 717.146 1018.28 710.399 1025.8 707.391L1291.15 601.327C1296.23 599.297 1301.87 599.144 1307.05 600.896L1606.2 702.019C1612.31 704.085 1617.27 708.623 1619.88 714.525L1718.75 938.642C1722.39 946.901 1720.87 956.528 1714.85 963.257Z" stroke="url(#paint35_linear_270_19)" stroke-width="4"/>
<path opacity="0.536232" d="M1734.22 948.995L1582.65 1138.54C1578.61 1143.59 1572.63 1146.7 1566.18 1147.12L1255.38 1167.41C1249.89 1167.77 1244.46 1166.15 1240.06 1162.84L1014.43 993.2C1007.97 988.342 1004.53 980.45 1005.38 972.412L1028.77 749.876C1029.61 741.837 1034.62 734.832 1041.94 731.424L1297.91 612.399C1302.9 610.08 1308.55 609.625 1313.85 611.117L1613.64 695.579C1619.86 697.332 1625.06 701.623 1627.96 707.401L1736.81 924.315C1740.84 932.342 1739.83 941.981 1734.22 948.995Z" stroke="url(#paint36_linear_270_19)" stroke-width="4"/>
<path opacity="0.550725" d="M1752.51 935.102L1612.92 1130.87C1609.16 1136.14 1603.35 1139.59 1596.92 1140.35L1291.92 1176.68C1286.43 1177.34 1280.89 1175.99 1276.31 1172.89L1045.41 1016.61C1038.74 1012.09 1034.92 1004.41 1035.34 996.355L1046.96 774.544C1047.38 766.495 1051.99 759.253 1059.1 755.458L1305.07 624.162C1309.95 621.559 1315.6 620.799 1320.99 622.024L1620.52 690.035C1626.83 691.47 1632.25 695.503 1635.44 701.142L1753.8 910.427C1758.2 918.205 1757.69 927.826 1752.51 935.102Z" stroke="url(#paint37_linear_270_19)" stroke-width="4"/>
<path opacity="0.565217" d="M1769.75 921.634L1642.38 1122.89C1638.91 1128.38 1633.28 1132.14 1626.88 1133.25L1328.51 1185.08C1323.04 1186.03 1317.4 1184.96 1312.65 1182.08L1077.25 1039.23C1070.38 1035.06 1066.19 1027.61 1066.19 1019.57V799.098C1066.19 791.06 1070.38 783.606 1077.25 779.436L1312.65 636.59C1317.4 633.705 1323.04 632.64 1328.51 633.592L1626.88 685.413C1633.28 686.524 1638.91 690.288 1642.38 695.774L1769.75 897.034C1774.5 904.545 1774.5 914.123 1769.75 921.634Z" stroke="url(#paint38_linear_270_19)" stroke-width="4"/>
<path opacity="0.57971" d="M1785.98 908.645L1671.02 1114.66C1667.85 1120.34 1662.42 1124.42 1656.07 1125.87L1365.11 1192.59C1359.66 1193.84 1353.94 1193.06 1349.02 1190.4L1109.9 1061.04C1102.85 1057.22 1098.29 1050.01 1097.87 1042.01L1086.42 823.482C1086 815.478 1089.78 807.833 1096.39 803.304L1320.68 649.652C1325.3 646.492 1330.9 645.121 1336.45 645.794L1632.8 681.733C1639.26 682.517 1645.08 686 1648.83 691.32L1784.7 884.191C1789.79 891.418 1790.29 900.924 1785.98 908.645Z" stroke="url(#paint39_linear_270_19)" stroke-width="4"/>
<path opacity="0.594203" d="M1801.25 896.187L1698.83 1106.22C1695.97 1112.08 1690.76 1116.45 1684.49 1118.25L1401.65 1199.23C1396.25 1200.78 1390.46 1200.29 1385.39 1197.87L1143.29 1081.98C1136.08 1078.53 1131.18 1071.59 1130.35 1063.64L1107.64 847.641C1106.81 839.694 1110.16 831.883 1116.49 827.009L1329.21 663.32C1333.66 659.891 1339.22 658.213 1344.83 658.603L1638.32 679.013C1644.83 679.466 1650.84 682.659 1654.85 687.799L1798.7 871.947C1804.11 878.875 1805.1 888.284 1801.25 896.187Z" stroke="url(#paint40_linear_270_19)" stroke-width="4"/>
<path opacity="0.608696" d="M1815.59 884.308L1725.81 1097.61C1723.28 1103.64 1718.3 1108.3 1712.12 1110.43L1438.1 1205.01C1432.75 1206.86 1426.92 1206.67 1421.7 1204.48L1177.37 1102.03C1170.02 1098.95 1164.79 1092.29 1163.55 1084.42L1129.83 871.524C1128.58 863.655 1131.49 855.702 1137.53 850.501L1338.25 677.563C1342.53 673.871 1348.02 671.888 1353.68 671.991L1643.51 677.268C1650.05 677.387 1656.22 680.281 1660.5 685.227L1811.79 860.349C1817.51 866.965 1818.98 876.25 1815.59 884.308Z" stroke="url(#paint41_linear_270_19)" stroke-width="4"/>
<path opacity="0.623188" d="M1829.04 873.054L1751.97 1088.89C1749.77 1095.06 1745.04 1100 1738.97 1102.46L1474.4 1209.94C1469.13 1212.08 1463.26 1212.2 1457.91 1210.26L1212.08 1121.16C1204.61 1118.45 1199.07 1112.09 1197.42 1104.32L1152.94 895.079C1151.29 887.31 1153.77 879.24 1159.49 873.73L1347.82 692.346C1351.92 688.401 1357.33 686.113 1363.02 685.925L1648.43 676.507C1654.97 676.291 1661.3 678.877 1665.83 683.618L1824.03 849.443C1830.03 855.733 1831.97 864.868 1829.04 873.054Z" stroke="url(#paint42_linear_270_19)" stroke-width="4"/>
<path opacity="0.637681" d="M1841.67 862.469L1777.31 1080.09C1775.44 1086.39 1770.98 1091.59 1765.03 1094.39L1510.52 1214.04C1505.34 1216.47 1499.44 1216.89 1493.97 1215.21L1247.36 1139.34C1239.79 1137.01 1233.95 1130.95 1231.9 1123.31L1176.96 918.259C1174.91 910.612 1176.94 902.449 1182.33 896.65L1357.97 707.638C1361.86 703.446 1367.18 700.857 1372.88 700.376L1653.13 676.738C1659.67 676.186 1666.14 678.457 1670.9 682.98L1835.45 839.269C1841.72 845.221 1844.12 854.182 1841.67 862.469Z" stroke="url(#paint43_linear_270_19)" stroke-width="4"/>
<path opacity="0.652174" d="M1853.5 852.59L1801.83 1071.27C1800.31 1077.68 1796.13 1083.13 1790.33 1086.25L1546.39 1217.31C1541.32 1220.04 1535.41 1220.76 1529.83 1219.34L1283.14 1156.54C1275.5 1154.59 1269.38 1148.86 1266.94 1141.36L1201.85 941.018C1199.41 933.513 1200.99 925.283 1206.03 919.213L1368.69 723.403C1372.37 718.975 1377.58 716.087 1383.28 715.31L1657.67 677.964C1664.19 677.077 1670.78 679.026 1675.77 683.318L1846.12 829.865C1852.63 835.467 1855.48 844.23 1853.5 852.59Z" stroke="url(#paint44_linear_270_19)" stroke-width="4"/>
<path opacity="0.666667" d="M1864.6 843.454L1825.54 1062.47C1824.38 1068.97 1820.49 1074.65 1814.86 1078.08L1581.99 1219.79C1577.04 1222.8 1571.14 1223.83 1565.46 1222.68L1319.37 1172.75C1311.67 1171.18 1305.29 1165.79 1302.48 1158.45L1227.57 963.312C1224.75 955.971 1225.88 947.698 1230.56 941.379L1380.03 739.606C1383.48 734.951 1388.55 731.768 1394.25 730.695L1662.12 680.187C1668.6 678.964 1675.3 680.585 1680.5 684.637L1856.08 821.264C1862.82 826.507 1866.1 835.05 1864.6 843.454Z" stroke="url(#paint45_linear_270_19)" stroke-width="4"/>
<path opacity="0.681159" d="M1875.02 835.094L1848.46 1053.73C1847.67 1060.3 1844.08 1066.2 1838.62 1069.94L1617.27 1221.49C1612.46 1224.78 1606.58 1226.12 1600.81 1225.25L1355.99 1187.95C1348.24 1186.77 1341.63 1181.72 1338.44 1174.56L1254.09 985.102C1250.9 977.943 1251.58 969.654 1255.88 963.107L1391.98 756.21C1395.19 751.339 1400.12 747.867 1405.79 746.496L1666.53 683.401C1672.95 681.845 1679.74 683.132 1685.15 686.933L1865.4 813.497C1872.35 818.372 1876.04 826.672 1875.02 835.094Z" stroke="url(#paint46_linear_270_19)" stroke-width="4"/>
<path opacity="0.695652" d="M1884.81 827.539L1870.61 1045.1C1870.17 1051.71 1866.91 1057.82 1861.65 1061.85L1652.18 1222.43C1647.52 1226 1641.68 1227.66 1635.84 1227.06L1392.92 1202.13C1385.15 1201.33 1378.32 1196.65 1374.77 1189.69L1281.36 1006.35C1277.81 999.392 1278.04 991.112 1281.96 984.359L1404.58 773.179C1407.52 768.104 1412.3 764.348 1417.93 762.678L1670.96 687.601C1677.31 685.716 1684.17 686.664 1689.78 690.203L1874.13 806.592C1881.26 811.092 1885.35 819.129 1884.81 827.539Z" stroke="url(#paint47_linear_270_19)" stroke-width="4"/>
<path opacity="0.710145" d="M1894.02 820.814L1891.98 1036.61C1891.92 1043.25 1888.99 1049.54 1883.94 1053.86L1686.69 1222.65C1682.2 1226.49 1676.41 1228.45 1670.51 1228.14L1430.1 1215.28C1422.34 1214.87 1415.3 1210.55 1411.41 1203.82L1309.34 1027.02C1305.45 1020.28 1305.23 1012.03 1308.76 1005.1L1417.82 790.475C1420.5 785.209 1425.1 781.174 1430.67 779.207L1675.46 692.777C1681.73 690.564 1688.65 691.17 1694.43 694.439L1882.33 800.571C1889.62 804.689 1894.1 812.443 1894.02 820.814Z" stroke="url(#paint48_linear_270_19)" stroke-width="4"/>
<path opacity="0.724638" d="M1902.71 814.944L1912.62 1028.3C1912.93 1034.95 1910.33 1041.41 1905.51 1046.01L1720.76 1222.16C1716.46 1226.27 1710.73 1228.55 1704.78 1228.52L1467.48 1227.41C1459.73 1227.37 1452.52 1223.43 1448.3 1216.93L1338 1047.08C1333.77 1040.58 1333.11 1032.39 1336.23 1025.3L1431.73 808.06C1434.13 802.616 1438.54 798.31 1444.04 796.047L1680.11 698.915C1686.27 696.38 1693.22 696.641 1699.18 699.629L1890.06 795.455C1897.49 799.185 1902.33 806.637 1902.71 814.944Z" stroke="url(#paint49_linear_270_19)" stroke-width="4"/>
<path opacity="0.73913" d="M1910.95 809.944L1932.52 1020.21C1933.2 1026.86 1930.97 1033.47 1926.39 1038.33L1754.35 1221.01C1750.25 1225.37 1744.6 1227.96 1738.62 1228.22L1504.99 1238.5C1497.27 1238.84 1489.91 1235.29 1485.37 1229.04L1367.28 1066.5C1362.74 1060.25 1361.64 1052.15 1364.34 1044.92L1446.31 825.897C1448.41 820.288 1452.62 815.719 1458.03 813.161L1684.94 705.998C1690.97 703.146 1697.95 703.06 1704.06 705.761L1897.37 791.258C1904.92 794.598 1910.1 801.73 1910.95 809.944Z" stroke="url(#paint50_linear_270_19)" stroke-width="4"/>
<path opacity="0.753623" d="M1918.77 805.832L1951.73 1012.39C1952.78 1019 1950.9 1025.74 1946.58 1030.85L1787.43 1219.22C1783.54 1223.83 1778 1226.72 1771.99 1227.28L1542.56 1248.57C1534.9 1249.28 1527.4 1246.11 1522.56 1240.14L1397.14 1085.25C1392.3 1079.28 1390.76 1071.28 1393.05 1063.94L1461.57 843.946C1463.37 838.188 1467.35 833.364 1472.67 830.515L1690.01 714.008C1695.91 710.845 1702.89 710.41 1709.14 712.816L1904.33 787.993C1911.98 790.94 1917.48 797.736 1918.77 805.832Z" stroke="url(#paint51_linear_270_19)" stroke-width="4"/>
<path opacity="0.768116" d="M1926.26 802.619L1970.25 1004.85C1971.68 1011.41 1970.17 1018.26 1966.12 1023.62L1819.97 1216.83C1816.31 1221.67 1810.88 1224.87 1804.86 1225.73L1580.13 1257.61C1572.55 1258.69 1564.93 1255.92 1559.81 1250.23L1427.53 1103.32C1422.41 1097.63 1420.45 1089.76 1422.31 1082.33L1477.52 862.17C1478.99 856.278 1482.74 851.209 1487.94 848.071L1695.37 722.921C1701.12 719.454 1708.1 718.67 1714.47 720.774L1910.99 785.669C1918.72 788.221 1924.53 794.667 1926.26 802.619Z" stroke="url(#paint52_linear_270_19)" stroke-width="4"/>
<path opacity="0.782609" d="M1933.45 800.313L1988.12 997.641C1989.92 1004.13 1988.79 1011.07 1985.02 1016.65L1851.94 1213.87C1848.52 1218.94 1843.21 1222.44 1837.2 1223.59L1617.65 1265.65C1610.16 1267.09 1602.45 1264.72 1597.06 1259.33L1458.41 1120.67C1453.02 1115.28 1450.65 1107.57 1452.08 1100.08L1494.14 880.531C1495.3 874.521 1498.8 869.217 1503.87 865.794L1701.09 732.712C1706.66 728.948 1713.61 727.816 1720.09 729.612L1917.42 784.29C1925.21 786.447 1931.29 792.529 1933.45 800.313Z" stroke="url(#paint53_linear_270_19)" stroke-width="4"/>
<path opacity="0.797101" d="M1940.4 798.918L2005.37 990.788C2007.53 997.178 2006.78 1004.19 2003.31 1009.98L1883.31 1210.37C1880.14 1215.66 1874.98 1219.46 1868.99 1220.91L1655.05 1272.7C1647.68 1274.48 1639.89 1272.51 1634.25 1267.44L1489.73 1137.3C1484.09 1132.22 1481.31 1124.69 1482.32 1117.17L1511.46 898.991C1512.28 892.878 1515.51 887.35 1520.44 883.647L1707.19 743.352C1712.59 739.301 1719.49 737.821 1726.07 739.305L1923.68 783.858C1931.49 785.62 1937.83 791.327 1940.4 798.918Z" stroke="url(#paint54_linear_270_19)" stroke-width="4"/>
<path opacity="0.811594" d="M1947.18 798.436L2022.01 984.321C2024.54 990.595 2024.18 997.662 2021.02 1003.64L1914.05 1206.39C1911.15 1211.88 1906.15 1215.97 1900.19 1217.72L1692.28 1278.77C1685.03 1280.9 1677.2 1279.33 1671.33 1274.58L1521.43 1153.19C1515.56 1148.44 1512.4 1141.1 1512.97 1133.57L1529.46 917.511C1529.93 911.315 1532.89 905.574 1537.67 901.595L1713.74 754.812C1718.93 750.481 1725.77 748.656 1732.43 749.822L1929.81 784.37C1937.64 785.741 1944.21 791.06 1947.18 798.436Z" stroke="url(#paint55_linear_270_19)" stroke-width="4"/>
<path opacity="0.826087" d="M1953.84 798.865L2038.09 978.266C2040.97 984.403 2041 991.499 2038.17 997.659L1944.14 1201.94C1941.53 1207.63 1936.7 1212.01 1930.78 1214.06L1729.28 1283.89C1722.17 1286.35 1714.31 1285.18 1708.23 1280.76L1553.48 1168.33C1547.39 1163.91 1543.85 1156.79 1544 1149.27L1548.14 936.055C1548.26 929.793 1550.94 923.852 1555.54 919.603L1720.77 767.056C1725.75 762.457 1732.51 760.29 1739.24 761.135L1935.89 785.82C1943.72 786.802 1950.49 791.726 1953.84 798.865Z" stroke="url(#paint56_linear_270_19)" stroke-width="4"/>
<path opacity="0.84058" d="M1960.44 800.197L2053.63 972.648C2056.86 978.629 2057.28 985.733 2054.78 992.053L1973.57 1197.09C1971.24 1202.96 1966.61 1207.61 1960.75 1209.96L1765.99 1288.08C1759.05 1290.86 1751.18 1290.1 1744.9 1286.02L1585.81 1182.71C1579.54 1178.63 1575.64 1171.76 1575.36 1164.28L1567.5 954.587C1567.27 948.277 1569.63 942.148 1574.05 937.636L1728.33 780.05C1733.08 775.193 1739.74 772.687 1746.52 773.207L1941.97 788.199C1949.76 788.798 1956.72 793.317 1960.44 800.197Z" stroke="url(#paint57_linear_270_19)" stroke-width="4"/>
<path opacity="0.855072" d="M1967.03 802.426L2068.67 967.491C2072.24 973.294 2073.06 980.384 2070.89 986.848L2002.31 1191.86C2000.29 1197.89 1995.85 1202.82 1990.06 1205.47L1802.36 1291.37C1795.59 1294.46 1787.74 1294.09 1781.29 1290.37L1618.39 1196.32C1611.94 1192.6 1607.7 1185.98 1606.99 1178.57L1587.53 973.069C1586.93 966.731 1588.98 960.427 1593.2 955.659L1736.45 793.755C1740.96 788.651 1747.51 785.812 1754.33 786.005L1948.1 791.495C1955.85 791.714 1962.96 795.824 1967.03 802.426Z" stroke="url(#paint58_linear_270_19)" stroke-width="4"/>
<path opacity="0.869565" d="M1973.66 805.538L2083.23 962.814C2087.14 968.421 2088.35 975.475 2086.54 982.064L2030.34 1186.29C2028.64 1192.49 2024.42 1197.68 2018.72 1200.63L1838.35 1293.79C1831.77 1297.18 1823.95 1297.21 1817.35 1293.84L1651.16 1209.16C1644.56 1205.8 1639.99 1199.47 1638.87 1192.14L1608.21 991.467C1607.25 985.12 1608.97 978.656 1612.98 973.64L1745.17 808.132C1749.44 802.792 1755.86 799.625 1762.69 799.49L1954.33 795.69C1962.02 795.538 1969.27 799.233 1973.66 805.538Z" stroke="url(#paint59_linear_270_19)" stroke-width="4"/>
<path opacity="0.884058" d="M1980.39 809.519L2097.36 958.637C2101.59 964.028 2103.19 971.024 2101.73 977.719L2057.66 1180.44C2056.28 1186.77 2052.3 1192.23 2046.69 1195.47L1873.9 1295.37C1867.52 1299.06 1859.76 1299.46 1853.03 1296.47L1684.08 1221.25C1677.35 1218.25 1672.46 1212.21 1670.93 1205L1629.55 1009.75C1628.21 1003.41 1629.6 996.802 1633.38 991.545L1754.54 823.137C1758.54 817.575 1764.81 814.087 1771.65 813.622L1960.73 800.767C1968.33 800.25 1975.69 803.527 1980.39 809.519Z" stroke="url(#paint60_linear_270_19)" stroke-width="4"/>
<path opacity="0.898551" d="M1987.26 814.349L2111.08 954.975C2115.62 960.131 2117.61 967.047 2116.52 973.83L2084.24 1174.35C2083.21 1180.8 2079.47 1186.5 2073.98 1190.04L1908.96 1296.15C1902.8 1300.11 1895.12 1300.9 1888.28 1298.28L1717.09 1232.57C1710.25 1229.94 1705.07 1224.21 1703.15 1217.15L1651.52 1027.87C1649.8 1021.57 1650.84 1014.83 1654.39 1009.34L1764.57 838.728C1768.3 832.957 1774.41 829.154 1781.23 828.36L1967.34 806.702C1974.84 805.83 1982.28 808.688 1987.26 814.349Z" stroke="url(#paint61_linear_270_19)" stroke-width="4"/>
<path opacity="0.913043" d="M1994.33 820.009L2124.43 951.844C2129.27 956.747 2131.65 963.56 2130.93 970.41L2110.1 1168.05C2109.4 1174.61 2105.93 1180.55 2100.56 1184.38L1943.5 1296.17C1937.56 1300.4 1929.98 1301.56 1923.05 1299.31L1750.16 1243.13C1743.23 1240.88 1737.78 1235.48 1735.46 1228.58L1674.11 1045.81C1672.01 1039.56 1672.69 1032.71 1675.99 1027L1775.3 854.859C1778.74 848.893 1784.68 844.783 1791.48 843.66L1974.22 813.472C1981.59 812.254 1989.09 814.692 1994.33 820.009Z" stroke="url(#paint62_linear_270_19)" stroke-width="4"/>
<path opacity="0.927536" d="M2001.65 826.474L2137.45 949.254C2142.57 953.886 2145.34 960.575 2144.99 967.473L2135.21 1161.59C2134.87 1168.24 2131.67 1174.42 2126.44 1178.53L1977.47 1295.47C1971.77 1299.94 1964.31 1301.47 1957.31 1299.6L1783.23 1252.95C1776.24 1251.08 1770.53 1246.02 1767.84 1239.3L1697.3 1063.54C1694.82 1057.36 1695.14 1050.41 1698.17 1044.49L1786.76 871.483C1789.9 865.336 1795.65 860.928 1802.4 859.478L1981.4 821.047C1988.63 819.494 1996.16 821.513 2001.65 826.474Z" stroke="url(#paint63_linear_270_19)" stroke-width="4"/>
<path opacity="0.942029" d="M2009.25 833.717L2150.17 947.215C2155.56 951.559 2158.71 958.102 2158.74 965.027L2159.57 1155.02C2159.6 1161.74 2156.69 1168.14 2151.6 1172.53L2010.84 1294.1C2005.39 1298.8 1998.06 1300.68 1991.02 1299.19L1816.26 1262.04C1809.22 1260.54 1803.29 1255.84 1800.23 1249.33L1721.08 1081.02C1718.22 1074.94 1718.16 1067.91 1720.92 1061.78L1798.96 888.553C1801.8 882.239 1807.34 877.543 1814.03 875.768L1988.93 829.397C1996.01 827.521 2003.55 829.125 2009.25 833.717Z" stroke="url(#paint64_linear_270_19)" stroke-width="4"/>
<path opacity="0.956522" d="M2017.19 841.709L2162.62 945.736C2168.27 949.775 2171.79 956.15 2172.2 963.081L2183.19 1148.38C2183.59 1155.15 2180.98 1161.76 2176.06 1166.42L2043.57 1292.09C2038.38 1297.01 2031.2 1299.23 2024.14 1298.12L1849.21 1270.41C1842.15 1269.29 1836.01 1264.96 1832.6 1258.67L1745.43 1098.22C1742.19 1092.26 1741.74 1085.17 1744.22 1078.85L1811.93 906.019C1814.46 899.554 1819.78 894.579 1826.4 892.482L1996.86 838.49C2003.77 836.303 2011.3 837.496 2017.19 841.709Z" stroke="url(#paint65_linear_270_19)" stroke-width="4"/>
<path opacity="0.971014" d="M2025.5 850.42L2174.85 944.82C2180.74 948.54 2184.62 954.725 2185.42 961.642L2206.06 1141.7C2206.84 1148.51 2204.55 1155.32 2199.8 1160.26L2075.62 1289.49C2070.7 1294.61 2063.7 1297.17 2056.63 1296.43L1882.04 1278.08C1874.98 1277.34 1868.66 1273.38 1864.91 1267.35L1770.32 1115.12C1766.7 1109.3 1765.87 1102.16 1768.05 1095.67L1825.68 923.832C1827.89 917.231 1832.98 911.989 1839.51 909.574L2005.23 848.29C2011.95 845.805 2019.44 846.593 2025.5 850.42Z" stroke="url(#paint66_linear_270_19)" stroke-width="4"/>
<path opacity="0.985507" d="M2034.21 859.815L2186.89 944.472C2193 947.857 2197.23 953.832 2198.41 960.713L2228.2 1135.04C2229.36 1141.87 2227.39 1148.86 2222.83 1154.07L2106.98 1286.36C2102.34 1291.67 2095.52 1294.55 2088.48 1294.18L1914.7 1285.07C1907.66 1284.7 1901.18 1281.12 1897.11 1275.36L1795.73 1131.69C1791.74 1126.03 1790.51 1118.87 1792.38 1112.2L1840.23 941.941C1842.12 935.221 1846.96 929.722 1853.38 926.993L2014.07 858.759C2020.59 855.991 2028.02 856.381 2034.21 859.815Z" stroke="url(#paint67_linear_270_19)" stroke-width="4"/>
<path d="M2043.38 869.86L2198.77 944.692C2205.08 947.729 2209.66 953.472 2211.21 960.296L2249.59 1128.44C2251.15 1135.27 2249.52 1142.43 2245.15 1147.9L2137.62 1282.74C2133.25 1288.22 2126.64 1291.4 2119.64 1291.4H1947.17C1940.17 1291.4 1933.55 1288.22 1929.18 1282.74L1821.65 1147.9C1817.29 1142.43 1815.65 1135.27 1817.21 1128.44L1855.59 960.296C1857.14 953.472 1861.72 947.729 1868.03 944.692L2023.42 869.86C2029.73 866.823 2037.07 866.823 2043.38 869.86Z" stroke="url(#paint68_linear_270_19)" stroke-width="4"/>
<defs>
<linearGradient id="paint0_linear_270_19" x1="374.985" y1="1198.86" x2="853.098" y2="124.996" gradientUnits="userSpaceOnUse">
<stop stop-color="#FF1CF7"/>
<stop offset="1" stop-color="#00F0FF"/>
</linearGradient>
<linearGradient id="paint1_linear_270_19" x1="425.177" y1="1211.54" x2="842.716" y2="123.813" gradientUnits="userSpaceOnUse">
<stop stop-color="#FF1CF7"/>
<stop offset="1" stop-color="#00F0FF"/>
</linearGradient>
<linearGradient id="paint2_linear_270_19" x1="475.433" y1="1222.6" x2="832.267" y2="124.376" gradientUnits="userSpaceOnUse">
<stop stop-color="#FF1CF7"/>
<stop offset="1" stop-color="#00F0FF"/>
</linearGradient>
<linearGradient id="paint3_linear_270_19" x1="525.662" y1="1232.04" x2="821.845" y2="126.673" gradientUnits="userSpaceOnUse">
<stop stop-color="#FF1CF7"/>
<stop offset="1" stop-color="#00F0FF"/>
</linearGradient>
<linearGradient id="paint4_linear_270_19" x1="575.777" y1="1239.89" x2="811.547" y2="130.685" gradientUnits="userSpaceOnUse">
<stop stop-color="#FF1CF7"/>
<stop offset="1" stop-color="#00F0FF"/>
</linearGradient>
<linearGradient id="paint5_linear_270_19" x1="625.692" y1="1246.17" x2="801.463" y2="136.388" gradientUnits="userSpaceOnUse">
<stop stop-color="#FF1CF7"/>
<stop offset="1" stop-color="#00F0FF"/>
</linearGradient>
<linearGradient id="paint6_linear_270_19" x1="675.321" y1="1250.89" x2="791.686" y2="143.756" gradientUnits="userSpaceOnUse">
<stop stop-color="#FF1CF7"/>
<stop offset="1" stop-color="#00F0FF"/>
</linearGradient>
<linearGradient id="paint7_linear_270_19" x1="724.584" y1="1254.11" x2="782.304" y2="152.755" gradientUnits="userSpaceOnUse">
<stop stop-color="#FF1CF7"/>
<stop offset="1" stop-color="#00F0FF"/>
</linearGradient>
<linearGradient id="paint8_linear_270_19" x1="773.401" y1="1255.83" x2="773.401" y2="163.347" gradientUnits="userSpaceOnUse">
<stop stop-color="#FF1CF7"/>
<stop offset="1" stop-color="#00F0FF"/>
</linearGradient>
<linearGradient id="paint9_linear_270_19" x1="821.694" y1="1256.12" x2="765.061" y2="175.49" gradientUnits="userSpaceOnUse">
<stop stop-color="#FF1CF7"/>
<stop offset="1" stop-color="#00F0FF"/>
</linearGradient>
<linearGradient id="paint10_linear_270_19" x1="869.39" y1="1255" x2="757.363" y2="189.138" gradientUnits="userSpaceOnUse">
<stop stop-color="#FF1CF7"/>
<stop offset="1" stop-color="#00F0FF"/>
</linearGradient>
<linearGradient id="paint11_linear_270_19" x1="916.417" y1="1252.54" x2="750.383" y2="204.241" gradientUnits="userSpaceOnUse">
<stop stop-color="#FF1CF7"/>
<stop offset="1" stop-color="#00F0FF"/>
</linearGradient>
<linearGradient id="paint12_linear_270_19" x1="962.708" y1="1248.77" x2="744.196" y2="220.745" gradientUnits="userSpaceOnUse">
<stop stop-color="#FF1CF7"/>
<stop offset="1" stop-color="#00F0FF"/>
</linearGradient>
<linearGradient id="paint13_linear_270_19" x1="1008.2" y1="1243.75" x2="738.868" y2="238.591" gradientUnits="userSpaceOnUse">
<stop stop-color="#FF1CF7"/>
<stop offset="1" stop-color="#00F0FF"/>
</linearGradient>
<linearGradient id="paint14_linear_270_19" x1="1052.83" y1="1237.53" x2="734.467" y2="257.72" gradientUnits="userSpaceOnUse">
<stop stop-color="#FF1CF7"/>
<stop offset="1" stop-color="#00F0FF"/>
</linearGradient>
<linearGradient id="paint15_linear_270_19" x1="1096.54" y1="1230.19" x2="731.053" y2="278.065" gradientUnits="userSpaceOnUse">
<stop stop-color="#FF1CF7"/>
<stop offset="1" stop-color="#00F0FF"/>
</linearGradient>
<linearGradient id="paint16_linear_270_19" x1="1139.28" y1="1221.77" x2="728.683" y2="299.561" gradientUnits="userSpaceOnUse">
<stop stop-color="#FF1CF7"/>
<stop offset="1" stop-color="#00F0FF"/>
</linearGradient>
<linearGradient id="paint17_linear_270_19" x1="1181" y1="1212.35" x2="727.41" y2="322.138" gradientUnits="userSpaceOnUse">
<stop stop-color="#FF1CF7"/>
<stop offset="1" stop-color="#00F0FF"/>
</linearGradient>
<linearGradient id="paint18_linear_270_19" x1="1221.65" y1="1202" x2="727.282" y2="345.723" gradientUnits="userSpaceOnUse">
<stop stop-color="#FF1CF7"/>
<stop offset="1" stop-color="#00F0FF"/>
</linearGradient>
<linearGradient id="paint19_linear_270_19" x1="1261.2" y1="1190.77" x2="728.344" y2="370.243" gradientUnits="userSpaceOnUse">
<stop stop-color="#FF1CF7"/>
<stop offset="1" stop-color="#00F0FF"/>
</linearGradient>
<linearGradient id="paint20_linear_270_19" x1="1299.6" y1="1178.74" x2="730.634" y2="395.622" gradientUnits="userSpaceOnUse">
<stop stop-color="#FF1CF7"/>
<stop offset="1" stop-color="#00F0FF"/>
</linearGradient>
<linearGradient id="paint21_linear_270_19" x1="1336.83" y1="1165.99" x2="734.187" y2="421.782" gradientUnits="userSpaceOnUse">
<stop stop-color="#FF1CF7"/>
<stop offset="1" stop-color="#00F0FF"/>
</linearGradient>
<linearGradient id="paint22_linear_270_19" x1="1372.86" y1="1152.58" x2="739.033" y2="448.645" gradientUnits="userSpaceOnUse">
<stop stop-color="#FF1CF7"/>
<stop offset="1" stop-color="#00F0FF"/>
</linearGradient>
<linearGradient id="paint23_linear_270_19" x1="1407.66" y1="1138.59" x2="745.198" y2="476.131" gradientUnits="userSpaceOnUse">
<stop stop-color="#FF1CF7"/>
<stop offset="1" stop-color="#00F0FF"/>
</linearGradient>
<linearGradient id="paint24_linear_270_19" x1="1441.22" y1="1124.1" x2="752.701" y2="504.16" gradientUnits="userSpaceOnUse">
<stop stop-color="#FF1CF7"/>
<stop offset="1" stop-color="#00F0FF"/>
</linearGradient>
<linearGradient id="paint25_linear_270_19" x1="1473.51" y1="1109.18" x2="761.558" y2="532.651" gradientUnits="userSpaceOnUse">
<stop stop-color="#FF1CF7"/>
<stop offset="1" stop-color="#00F0FF"/>
</linearGradient>
<linearGradient id="paint26_linear_270_19" x1="1504.54" y1="1093.9" x2="771.78" y2="561.523" gradientUnits="userSpaceOnUse">
<stop stop-color="#FF1CF7"/>
<stop offset="1" stop-color="#00F0FF"/>
</linearGradient>
<linearGradient id="paint27_linear_270_19" x1="1534.29" y1="1078.35" x2="783.373" y2="590.696" gradientUnits="userSpaceOnUse">
<stop stop-color="#FF1CF7"/>
<stop offset="1" stop-color="#00F0FF"/>
</linearGradient>
<linearGradient id="paint28_linear_270_19" x1="1562.76" y1="1062.58" x2="796.339" y2="620.09" gradientUnits="userSpaceOnUse">
<stop stop-color="#FF1CF7"/>
<stop offset="1" stop-color="#00F0FF"/>
</linearGradient>
<linearGradient id="paint29_linear_270_19" x1="1589.96" y1="1046.69" x2="810.675" y2="649.625" gradientUnits="userSpaceOnUse">
<stop stop-color="#FF1CF7"/>
<stop offset="1" stop-color="#00F0FF"/>
</linearGradient>
<linearGradient id="paint30_linear_270_19" x1="1615.89" y1="1030.74" x2="826.372" y2="679.223" gradientUnits="userSpaceOnUse">
<stop stop-color="#FF1CF7"/>
<stop offset="1" stop-color="#00F0FF"/>
</linearGradient>
<linearGradient id="paint31_linear_270_19" x1="1640.57" y1="1014.8" x2="843.42" y2="708.805" gradientUnits="userSpaceOnUse">
<stop stop-color="#FF1CF7"/>
<stop offset="1" stop-color="#00F0FF"/>
</linearGradient>
<linearGradient id="paint32_linear_270_19" x1="1664.01" y1="998.949" x2="861.801" y2="738.298" gradientUnits="userSpaceOnUse">
<stop stop-color="#FF1CF7"/>
<stop offset="1" stop-color="#00F0FF"/>
</linearGradient>
<linearGradient id="paint33_linear_270_19" x1="1686.22" y1="983.25" x2="881.495" y2="767.625" gradientUnits="userSpaceOnUse">
<stop stop-color="#FF1CF7"/>
<stop offset="1" stop-color="#00F0FF"/>
</linearGradient>
<linearGradient id="paint34_linear_270_19" x1="1707.24" y1="967.771" x2="902.478" y2="796.714" gradientUnits="userSpaceOnUse">
<stop stop-color="#FF1CF7"/>
<stop offset="1" stop-color="#00F0FF"/>
</linearGradient>
<linearGradient id="paint35_linear_270_19" x1="1727.08" y1="952.578" x2="924.72" y2="825.497" gradientUnits="userSpaceOnUse">
<stop stop-color="#FF1CF7"/>
<stop offset="1" stop-color="#00F0FF"/>
</linearGradient>
<linearGradient id="paint36_linear_270_19" x1="1745.78" y1="937.734" x2="948.19" y2="853.904" gradientUnits="userSpaceOnUse">
<stop stop-color="#FF1CF7"/>
<stop offset="1" stop-color="#00F0FF"/>
</linearGradient>
<linearGradient id="paint37_linear_270_19" x1="1763.38" y1="923.3" x2="972.851" y2="881.87" gradientUnits="userSpaceOnUse">
<stop stop-color="#FF1CF7"/>
<stop offset="1" stop-color="#00F0FF"/>
</linearGradient>
<linearGradient id="paint38_linear_270_19" x1="1779.9" y1="909.334" x2="998.664" y2="909.334" gradientUnits="userSpaceOnUse">
<stop stop-color="#FF1CF7"/>
<stop offset="1" stop-color="#00F0FF"/>
</linearGradient>
<linearGradient id="paint39_linear_270_19" x1="1795.39" y1="895.891" x2="1025.59" y2="936.235" gradientUnits="userSpaceOnUse">
<stop stop-color="#FF1CF7"/>
<stop offset="1" stop-color="#00F0FF"/>
</linearGradient>
<linearGradient id="paint40_linear_270_19" x1="1809.89" y1="883.024" x2="1053.57" y2="962.517" gradientUnits="userSpaceOnUse">
<stop stop-color="#FF1CF7"/>
<stop offset="1" stop-color="#00F0FF"/>
</linearGradient>
<linearGradient id="paint41_linear_270_19" x1="1823.45" y1="870.783" x2="1082.57" y2="988.126" gradientUnits="userSpaceOnUse">
<stop stop-color="#FF1CF7"/>
<stop offset="1" stop-color="#00F0FF"/>
</linearGradient>
<linearGradient id="paint42_linear_270_19" x1="1836.11" y1="859.213" x2="1112.54" y2="1013.01" gradientUnits="userSpaceOnUse">
<stop stop-color="#FF1CF7"/>
<stop offset="1" stop-color="#00F0FF"/>
</linearGradient>
<linearGradient id="paint43_linear_270_19" x1="1847.92" y1="848.359" x2="1143.41" y2="1037.13" gradientUnits="userSpaceOnUse">
<stop stop-color="#FF1CF7"/>
<stop offset="1" stop-color="#00F0FF"/>
</linearGradient>
<linearGradient id="paint44_linear_270_19" x1="1858.94" y1="838.26" x2="1175.14" y2="1060.44" gradientUnits="userSpaceOnUse">
<stop stop-color="#FF1CF7"/>
<stop offset="1" stop-color="#00F0FF"/>
</linearGradient>
<linearGradient id="paint45_linear_270_19" x1="1869.22" y1="828.951" x2="1207.67" y2="1082.9" gradientUnits="userSpaceOnUse">
<stop stop-color="#FF1CF7"/>
<stop offset="1" stop-color="#00F0FF"/>
</linearGradient>
<linearGradient id="paint46_linear_270_19" x1="1878.81" y1="820.467" x2="1240.94" y2="1104.47" gradientUnits="userSpaceOnUse">
<stop stop-color="#FF1CF7"/>
<stop offset="1" stop-color="#00F0FF"/>
</linearGradient>
<linearGradient id="paint47_linear_270_19" x1="1887.77" y1="812.836" x2="1274.88" y2="1125.12" gradientUnits="userSpaceOnUse">
<stop stop-color="#FF1CF7"/>
<stop offset="1" stop-color="#00F0FF"/>
</linearGradient>
<linearGradient id="paint48_linear_270_19" x1="1896.16" y1="806.084" x2="1309.44" y2="1144.83" gradientUnits="userSpaceOnUse">
<stop stop-color="#FF1CF7"/>
<stop offset="1" stop-color="#00F0FF"/>
</linearGradient>
<linearGradient id="paint49_linear_270_19" x1="1904.03" y1="800.233" x2="1344.55" y2="1163.57" gradientUnits="userSpaceOnUse">
<stop stop-color="#FF1CF7"/>
<stop offset="1" stop-color="#00F0FF"/>
</linearGradient>
<linearGradient id="paint50_linear_270_19" x1="1911.45" y1="795.3" x2="1380.14" y2="1181.32" gradientUnits="userSpaceOnUse">
<stop stop-color="#FF1CF7"/>
<stop offset="1" stop-color="#00F0FF"/>
</linearGradient>
<linearGradient id="paint51_linear_270_19" x1="1918.48" y1="791.301" x2="1416.16" y2="1198.07" gradientUnits="userSpaceOnUse">
<stop stop-color="#FF1CF7"/>
<stop offset="1" stop-color="#00F0FF"/>
</linearGradient>
<linearGradient id="paint52_linear_270_19" x1="1925.17" y1="788.246" x2="1452.54" y2="1213.8" gradientUnits="userSpaceOnUse">
<stop stop-color="#FF1CF7"/>
<stop offset="1" stop-color="#00F0FF"/>
</linearGradient>
<linearGradient id="paint53_linear_270_19" x1="1931.59" y1="786.141" x2="1489.22" y2="1228.52" gradientUnits="userSpaceOnUse">
<stop stop-color="#FF1CF7"/>
<stop offset="1" stop-color="#00F0FF"/>
</linearGradient>
<linearGradient id="paint54_linear_270_19" x1="1937.8" y1="784.991" x2="1526.12" y2="1242.2" gradientUnits="userSpaceOnUse">
<stop stop-color="#FF1CF7"/>
<stop offset="1" stop-color="#00F0FF"/>
</linearGradient>
<linearGradient id="paint55_linear_270_19" x1="1943.85" y1="784.796" x2="1563.2" y2="1254.86" gradientUnits="userSpaceOnUse">
<stop stop-color="#FF1CF7"/>
<stop offset="1" stop-color="#00F0FF"/>
</linearGradient>
<linearGradient id="paint56_linear_270_19" x1="1949.8" y1="785.551" x2="1600.37" y2="1266.5" gradientUnits="userSpaceOnUse">
<stop stop-color="#FF1CF7"/>
<stop offset="1" stop-color="#00F0FF"/>
</linearGradient>
<linearGradient id="paint57_linear_270_19" x1="1955.72" y1="787.248" x2="1637.59" y2="1277.13" gradientUnits="userSpaceOnUse">
<stop stop-color="#FF1CF7"/>
<stop offset="1" stop-color="#00F0FF"/>
</linearGradient>
<linearGradient id="paint58_linear_270_19" x1="1961.65" y1="789.878" x2="1674.78" y2="1286.75" gradientUnits="userSpaceOnUse">
<stop stop-color="#FF1CF7"/>
<stop offset="1" stop-color="#00F0FF"/>
</linearGradient>
<linearGradient id="paint59_linear_270_19" x1="1967.66" y1="793.426" x2="1711.9" y2="1295.39" gradientUnits="userSpaceOnUse">
<stop stop-color="#FF1CF7"/>
<stop offset="1" stop-color="#00F0FF"/>
</linearGradient>
<linearGradient id="paint60_linear_270_19" x1="1973.8" y1="797.874" x2="1748.88" y2="1303.05" gradientUnits="userSpaceOnUse">
<stop stop-color="#FF1CF7"/>
<stop offset="1" stop-color="#00F0FF"/>
</linearGradient>
<linearGradient id="paint61_linear_270_19" x1="1980.11" y1="803.203" x2="1785.66" y2="1309.78" gradientUnits="userSpaceOnUse">
<stop stop-color="#FF1CF7"/>
<stop offset="1" stop-color="#00F0FF"/>
</linearGradient>
<linearGradient id="paint62_linear_270_19" x1="1986.66" y1="809.388" x2="1822.19" y2="1315.58" gradientUnits="userSpaceOnUse">
<stop stop-color="#FF1CF7"/>
<stop offset="1" stop-color="#00F0FF"/>
</linearGradient>
<linearGradient id="paint63_linear_270_19" x1="1993.49" y1="816.404" x2="1858.43" y2="1320.48" gradientUnits="userSpaceOnUse">
<stop stop-color="#FF1CF7"/>
<stop offset="1" stop-color="#00F0FF"/>
</linearGradient>
<linearGradient id="paint64_linear_270_19" x1="2000.65" y1="824.221" x2="1894.31" y2="1324.53" gradientUnits="userSpaceOnUse">
<stop stop-color="#FF1CF7"/>
<stop offset="1" stop-color="#00F0FF"/>
</linearGradient>
<linearGradient id="paint65_linear_270_19" x1="2008.18" y1="832.807" x2="1929.79" y2="1327.75" gradientUnits="userSpaceOnUse">
<stop stop-color="#FF1CF7"/>
<stop offset="1" stop-color="#00F0FF"/>
</linearGradient>
<linearGradient id="paint66_linear_270_19" x1="2016.12" y1="842.129" x2="1964.83" y2="1330.18" gradientUnits="userSpaceOnUse">
<stop stop-color="#FF1CF7"/>
<stop offset="1" stop-color="#00F0FF"/>
</linearGradient>
<linearGradient id="paint67_linear_270_19" x1="2024.52" y1="852.151" x2="1999.38" y2="1331.86" gradientUnits="userSpaceOnUse">
<stop stop-color="#FF1CF7"/>
<stop offset="1" stop-color="#00F0FF"/>
</linearGradient>
<linearGradient id="paint68_linear_270_19" x1="2033.4" y1="862.834" x2="2033.4" y2="1332.82" gradientUnits="userSpaceOnUse">
<stop stop-color="#FF1CF7"/>
<stop offset="1" stop-color="#00F0FF"/>
</linearGradient>
</defs>
</svg>
